<?xml version="1.0" encoding="UTF-8" standalone="no"?>
<svg
	height="100"
	xmlns:cc="http://creativecommons.org/ns#"
	xmlns:rdf="http://www.w3.org/1999/02/22-rdf-syntax-ns#"
	id="svg4"
	version="1.1"
	xmlns:sodipodi="http://sodipodi.sourceforge.net/DTD/sodipodi-0.dtd"
	viewBox="0 0 100 100"
	width="100"
	xmlns="http://www.w3.org/2000/svg"
	xmlns:dc="http://purl.org/dc/elements/1.1/"
	xmlns:inkscape="http://www.inkscape.org/namespaces/inkscape"
	xmlns:xlink="http://www.w3.org/1999/xlink"
	inkscape:export-filename="D:\workspaces\web-intellij\Barcodr\img\logo-border.png"
	inkscape:export-xdpi="61.439999"
	inkscape:export-ydpi="61.439999"
	inkscape:version="0.92.1 r15371"
	sodipodi:docname="logo.svg">
  <sodipodi:namedview
     bordercolor="#666666"
     borderopacity="1"
     gridtolerance="10"
     guidetolerance="10"
     id="namedview6"
     objecttolerance="10"
     pagecolor="#ffffff"
     showgrid="true"
     inkscape:current-layer="svg4"
     inkscape:cx="-32.931026"
     inkscape:cy="62.590389"
     inkscape:pageopacity="0"
     inkscape:pageshadow="2"
     inkscape:window-height="1017"
     inkscape:window-maximized="1"
     inkscape:window-width="1920"
     inkscape:window-x="-8"
     inkscape:window-y="-8"
     inkscape:zoom="2.8284271">
    <inkscape:grid
       id="grid4502"
       type="xygrid" />
  </sodipodi:namedview>
  <metadata
     id="metadata10">
    <rdf:RDF>
      <cc:Work
         rdf:about="">
        <dc:format>image/svg+xml</dc:format>
        <dc:type
           rdf:resource="http://purl.org/dc/dcmitype/StillImage" />
        <dc:title />
      </cc:Work>
    </rdf:RDF>
  </metadata>
  <defs
     id="defs8">
    <linearGradient
       id="linearGradient7004"
       inkscape:collect="always">
      <stop
         style="stop-color:#000000;stop-opacity:1"
         id="stop7000"
         offset="0" />
      <stop
         style="stop-color:#000000;stop-opacity:0"
         id="stop7002"
         offset="1" />
    </linearGradient>
    <linearGradient
       gradientUnits="userSpaceOnUse"
       id="linearGradient7006"
       x1="5"
       x2="140"
       y1="10"
       y2="160"
       inkscape:collect="always"
       xlink:href="#linearGradient7004" />
  </defs>
  <rect
     style="opacity:1;fill:#f9f9f9;fill-opacity:1;stroke:none;stroke-width:0.30000001;stroke-linecap:butt;stroke-linejoin:round;stroke-miterlimit:4;stroke-dasharray:none;stroke-opacity:1;paint-order:normal"
     height="100"
     id="rect4960"
     ry="5"
     width="100"
     x="0"
     y="0" />
  <path
     style="fill:url(#linearGradient7006);fill-opacity:1;stroke-width:1.68900812;opacity:0.228"
     d="M 53.767578 10.236328 C 53.767578 10.236328 51.085733 26.660122 57.335938 37.339844 C 57.389319 37.431056 57.447261 37.519015 57.501953 37.609375 C 57.479101 37.65705 57.443935 37.70655 57.392578 37.755859 C 57.369845 37.591761 57.336068 37.340649 57.335938 37.339844 C 57.326431 37.409814 57.26893 37.480894 57.191406 37.554688 C 57.168752 37.391343 57.136719 37.136719 57.136719 37.136719 C 57.127822 37.206566 57.069928 37.2798 56.992188 37.353516 C 56.969755 37.191994 56.935547 36.9375 56.935547 36.9375 C 56.92673 37.006725 56.870339 37.079266 56.792969 37.152344 C 56.770665 36.991887 56.736328 36.738281 56.736328 36.738281 C 56.727497 36.807614 56.67219 36.879876 56.59375 36.953125 C 56.571498 36.793122 56.537109 36.539062 56.537109 36.539062 C 56.52832 36.608078 56.471264 36.679004 56.392578 36.751953 C 56.370581 36.594018 56.337891 36.339844 56.337891 36.339844 C 56.329179 36.408232 56.271687 36.478472 56.193359 36.550781 C 56.171491 36.393905 56.138672 36.140625 56.138672 36.140625 C 56.130014 36.208607 56.072553 36.277697 55.994141 36.349609 C 55.972413 36.193887 55.9375 35.939453 55.9375 35.939453 C 55.928761 36.008059 55.873571 36.079681 55.792969 36.152344 C 55.771023 35.994936 55.738281 35.740234 55.738281 35.740234 C 55.729623 35.808218 55.674026 35.879144 55.59375 35.951172 C 55.572033 35.795615 55.539062 35.541016 55.539062 35.541016 C 55.530473 35.608448 55.474633 35.678527 55.394531 35.75 C 55.373042 35.596279 55.339844 35.341797 55.339844 35.341797 C 55.331335 35.408603 55.27509 35.477993 55.195312 35.548828 C 55.173952 35.396156 55.140625 35.142578 55.140625 35.142578 C 55.132077 35.209682 55.075533 35.278381 54.994141 35.349609 C 54.972764 35.196847 54.939453 34.941406 54.939453 34.941406 C 54.930953 35.008147 54.876565 35.077551 54.794922 35.148438 C 54.77377 34.997481 54.740234 34.742188 54.740234 34.742188 C 54.731812 34.808304 54.677058 34.877012 54.595703 34.947266 C 54.574679 34.797348 54.541016 34.542969 54.541016 34.542969 C 54.532674 34.608464 54.477557 34.676472 54.396484 34.746094 C 54.375683 34.597962 54.341797 34.34375 54.341797 34.34375 C 54.333525 34.408693 54.276261 34.475853 54.195312 34.544922 C 54.174757 34.398742 54.142578 34.144531 54.142578 34.144531 C 54.134322 34.209357 54.07787 34.276698 53.996094 34.345703 C 53.975401 34.198487 53.941406 33.943359 53.941406 33.943359 C 53.933218 34.007645 53.878577 34.07411 53.796875 34.142578 C 53.776576 33.998464 53.742187 33.744141 53.742188 33.744141 C 53.734012 33.808307 53.680223 33.874955 53.597656 33.943359 C 53.577404 33.799641 53.542969 33.544922 53.542969 33.544922 C 53.534772 33.609272 53.480624 33.675456 53.396484 33.744141 C 53.376198 33.600188 53.34375 33.345703 53.34375 33.345703 C 53.335657 33.409253 53.280791 33.475111 53.197266 33.542969 C 53.177198 33.400747 53.144531 33.146484 53.144531 33.146484 C 53.136502 33.209518 53.079654 33.274446 52.996094 33.341797 C 52.976174 33.200757 52.943359 32.945312 52.943359 32.945312 C 52.935434 33.007546 52.879836 33.074099 52.796875 33.140625 C 52.777082 33.000596 52.744141 32.746094 52.744141 32.746094 C 52.736282 32.807789 52.680625 32.871503 52.597656 32.9375 C 52.578248 32.800473 52.544922 32.546875 52.544922 32.546875 C 52.537167 32.607767 52.480811 32.67116 52.398438 32.736328 C 52.379241 32.600972 52.345703 32.347656 52.345703 32.347656 C 52.338046 32.407774 52.281073 32.470783 52.199219 32.535156 C 52.180149 32.400799 52.146484 32.148438 52.146484 32.148438 C 52.138893 32.208025 52.079959 32.270129 51.998047 32.333984 C 51.979118 32.200732 51.945313 31.947266 51.945312 31.947266 C 51.937822 32.006075 51.880229 32.069755 51.798828 32.132812 C 51.780109 32.001196 51.746094 31.748047 51.746094 31.748047 C 51.738673 31.806295 51.681022 31.869134 51.599609 31.931641 C 51.581015 31.801009 51.546875 31.548828 51.546875 31.548828 C 51.53952 31.606574 51.480018 31.666492 51.398438 31.728516 C 51.380239 31.600927 51.347656 31.349609 51.347656 31.349609 C 51.340403 31.406548 51.280251 31.466148 51.199219 31.527344 C 51.181226 31.401346 51.148437 31.150391 51.148438 31.150391 C 51.141254 31.206791 51.079194 31.265497 50.998047 31.326172 C 50.980106 31.200595 50.947266 30.949219 50.947266 30.949219 C 50.940148 31.005111 50.88018 31.064812 50.798828 31.125 C 50.78108 31.000912 50.748047 30.75 50.748047 30.75 C 50.741032 30.805079 50.680437 30.864472 50.599609 30.923828 C 50.582064 30.801299 50.548828 30.550781 50.548828 30.550781 C 50.541878 30.605337 50.479474 30.661845 50.398438 30.720703 C 50.381199 30.600515 50.349609 30.351562 50.349609 30.351562 C 50.342765 30.405303 50.279752 30.461506 50.199219 30.519531 C 50.18218 30.400873 50.150391 30.152344 50.150391 30.152344 C 50.143608 30.205582 50.080834 30.260807 50 30.318359 C 49.983 30.200017 49.951172 29.951172 49.951172 29.951172 L 49.949219 29.951172 C 49.942508 30.003863 49.879876 30.060156 49.798828 30.117188 C 49.782037 30.000431 49.75 29.751953 49.75 29.751953 C 49.743382 29.803903 49.680396 29.859727 49.599609 29.916016 C 49.583014 29.800755 49.550781 29.552734 49.550781 29.552734 C 49.544269 29.603864 49.48073 29.659387 49.400391 29.714844 C 49.383918 29.600521 49.351562 29.353516 49.351562 29.353516 C 49.345119 29.404093 49.281784 29.456782 49.201172 29.511719 C 49.185051 29.400043 49.152344 29.154297 49.152344 29.154297 C 49.146007 29.204047 49.082137 29.256447 49.001953 29.310547 C 48.98594 29.199694 48.953125 28.953125 48.953125 28.953125 L 48.951172 28.953125 C 48.944891 29.002425 48.881564 29.055672 48.800781 29.109375 C 48.784898 28.999515 48.751953 28.753906 48.751953 28.753906 C 48.74578 28.802377 48.68196 28.855335 48.601562 28.908203 C 48.58587 28.79978 48.552734 28.554688 48.552734 28.554688 C 48.546585 28.602953 48.482127 28.654266 48.400391 28.707031 C 48.384899 28.600117 48.353516 28.355469 48.353516 28.355469 C 48.347475 28.402899 48.282562 28.45393 48.201172 28.505859 C 48.185801 28.399857 48.154297 28.15625 48.154297 28.15625 C 48.148332 28.203072 48.083651 28.253323 48.001953 28.304688 C 47.986685 28.199459 47.955078 27.955078 47.955078 27.955078 C 47.949197 28.001259 47.88273 28.0508 47.800781 28.101562 C 47.785858 27.998907 47.753906 27.755859 47.753906 27.755859 C 47.748073 27.801647 47.684503 27.851884 47.601562 27.902344 C 47.58661 27.799473 47.554687 27.556641 47.554688 27.556641 C 47.548986 27.601402 47.484506 27.649805 47.402344 27.699219 C 47.387724 27.598824 47.355469 27.357422 47.355469 27.357422 C 47.349791 27.401987 47.284959 27.450645 47.201172 27.5 C 47.186605 27.400013 47.15625 27.158203 47.15625 27.158203 C 47.150891 27.200278 47.080786 27.244437 47.001953 27.291016 C 46.988095 27.196235 46.957031 26.958984 46.957031 26.958984 C 46.951657 27.001167 46.882157 27.044907 46.800781 27.091797 C 46.786877 26.996698 46.755859 26.757813 46.755859 26.757812 C 46.750444 26.800332 46.686208 26.84703 46.601562 26.894531 C 46.587544 26.798612 46.556641 26.558594 46.556641 26.558594 C 46.551387 26.599829 46.485517 26.645241 46.402344 26.691406 C 46.388588 26.59742 46.357422 26.359375 46.357422 26.359375 C 46.352269 26.399674 46.285823 26.443025 46.203125 26.488281 C 46.18969 26.39664 46.158203 26.160156 46.158203 26.160156 C 46.15322 26.199398 46.083817 26.240942 46.001953 26.285156 C 45.988853 26.195965 45.958984 25.960938 45.958984 25.960938 C 45.954069 25.999495 45.882764 26.040359 45.800781 26.083984 C 45.787711 25.995022 45.757812 25.759766 45.757812 25.759766 C 45.753023 25.797158 45.682195 25.838391 45.601562 25.880859 C 45.588805 25.794165 45.558594 25.560547 45.558594 25.560547 C 45.553972 25.596952 45.481905 25.638161 45.402344 25.679688 C 45.389754 25.594224 45.359375 25.361328 45.359375 25.361328 C 45.354882 25.396532 45.280727 25.436223 45.203125 25.476562 C 45.190788 25.392931 45.160156 25.162109 45.160156 25.162109 C 45.155737 25.196528 45.077962 25.233778 45.001953 25.273438 C 44.989938 25.19213 44.960937 24.962891 44.960938 24.962891 C 44.95693 24.994462 44.870309 25.02995 44.800781 25.066406 C 44.789257 24.988626 44.759766 24.761719 44.759766 24.761719 C 44.755716 24.793399 44.668591 24.830318 44.601562 24.867188 C 44.590015 24.789249 44.560547 24.5625 44.560547 24.5625 C 44.556747 24.59271 44.469375 24.626788 44.410156 24.662109 L 44.410156 24.664062 C 44.40928 24.669882 44.405248 24.675816 44.404297 24.681641 C 44.391803 24.596923 44.361328 24.363281 44.361328 24.363281 C 44.358128 24.388511 44.285677 24.417786 44.236328 24.447266 L 44.234375 24.447266 C 44.230689 24.472351 44.216003 24.498273 44.210938 24.523438 C 44.19531 24.41587 44.162109 24.164063 44.162109 24.164062 C 44.159509 24.184303 44.100035 24.206819 44.060547 24.230469 L 44.060547 24.232422 C 44.053976 24.278274 44.028753 24.324982 44.017578 24.371094 C 43.998138 24.234938 43.962891 23.964844 43.962891 23.964844 C 43.960991 23.980104 43.916349 23.995862 43.886719 24.013672 L 43.886719 24.015625 C 43.877253 24.083394 43.843719 24.152375 43.824219 24.220703 C 43.800419 24.050828 43.761719 23.763672 43.761719 23.763672 C 43.760419 23.773942 43.732661 23.786848 43.712891 23.798828 C 43.700861 23.887265 43.65995 23.97703 43.630859 24.066406 C 43.60279 23.862437 43.5625 23.564453 43.5625 23.564453 C 43.561826 23.569753 43.547009 23.575891 43.537109 23.582031 L 43.537109 23.583984 C 43.522423 23.694922 43.478972 23.807526 43.4375 23.919922 C 43.404395 23.674194 43.363431 23.368106 43.363281 23.367188 C 43.041798 25.8644 35.697747 28.734847 30.757812 31.658203 C 25.817131 34.582356 25.273031 39.843445 26.017578 41.96875 C 26.331622 42.864541 26.958811 43.58662 27.580078 44.134766 C 27.641464 44.192396 27.701998 44.238866 27.763672 44.292969 C 27.763672 44.292969 27.765625 44.294922 27.765625 44.294922 C 27.811203 44.337436 27.856511 44.373449 27.902344 44.414062 C 27.912135 44.42183 27.921883 44.429831 27.931641 44.4375 C 27.943381 44.447796 27.955054 44.456626 27.966797 44.466797 C 28.029502 44.524625 28.091147 44.574599 28.154297 44.628906 C 28.221415 44.690363 28.285809 44.747179 28.353516 44.804688 C 28.41873 44.863695 28.482994 44.917291 28.548828 44.972656 C 28.614401 45.031425 28.677866 45.08741 28.744141 45.142578 C 28.809086 45.200167 28.871796 45.256411 28.9375 45.310547 C 28.99914 45.364708 29.056728 45.421536 29.119141 45.472656 C 29.187943 45.532761 29.254368 45.593997 29.324219 45.650391 C 29.384402 45.702243 29.440894 45.759511 29.501953 45.808594 C 29.505023 45.811432 29.508643 45.813575 29.511719 45.816406 L 29.513672 45.818359 C 29.578641 45.883461 29.648707 45.94023 29.716797 46.001953 C 29.778595 46.063046 29.843512 46.117674 29.908203 46.175781 C 29.973111 46.239431 30.041178 46.297007 30.109375 46.357422 C 30.171695 46.417769 30.235348 46.473818 30.300781 46.53125 C 30.364615 46.592569 30.428882 46.650669 30.496094 46.708984 C 30.561547 46.771218 30.626213 46.831485 30.695312 46.890625 C 30.75749 46.949024 30.817248 47.006829 30.882812 47.0625 C 30.91865 47.095953 30.947303 47.133448 30.984375 47.166016 C 30.939873 47.99844 30.907706 48.819638 30.871094 49.623047 L 30.875 49.623047 L 30.875 50.816406 L 30.748047 50.816406 L 30.748047 50.617188 L 30.736328 50.617188 L 30.548828 50.617188 L 30.548828 50.417969 L 30.539062 50.417969 L 30.349609 50.417969 L 30.349609 50.21875 L 30.341797 50.21875 L 30.148438 50.21875 L 30.148438 50.017578 L 30.144531 50.017578 L 29.949219 50.017578 L 29.949219 49.818359 L 29.947266 49.818359 L 29.75 49.818359 L 29.75 49.619141 L 28.871094 49.619141 C 28.844611 49.595125 28.820296 49.570544 28.792969 49.546875 C 28.726577 49.481858 28.66989 49.414266 28.597656 49.351562 C 28.528139 49.283372 28.468504 49.212134 28.392578 49.146484 C 28.325473 49.080988 28.268338 49.012363 28.195312 48.949219 C 28.128251 48.883707 28.071014 48.81512 27.998047 48.751953 C 27.931903 48.687349 27.876561 48.618972 27.804688 48.556641 C 27.73572 48.489128 27.676766 48.418553 27.601562 48.353516 C 27.534448 48.287996 27.477282 48.219438 27.404297 48.15625 C 27.338103 48.09164 27.282828 48.023287 27.210938 47.960938 C 27.14072 47.892248 27.080543 47.820045 27.003906 47.753906 C 26.939802 47.691542 26.885806 47.626667 26.816406 47.566406 C 26.747392 47.498848 26.688473 47.42839 26.613281 47.363281 C 26.545384 47.297052 26.487899 47.227933 26.414062 47.164062 C 26.347839 47.099497 26.292559 47.031079 26.220703 46.96875 C 26.15166 46.901288 26.092751 46.830653 26.017578 46.765625 C 25.950358 46.700186 25.893303 46.631503 25.820312 46.568359 C 25.752501 46.502288 25.694771 46.43288 25.621094 46.369141 C 25.554389 46.304223 25.49814 46.236497 25.425781 46.173828 C 25.359515 46.109217 25.304269 46.040913 25.232422 45.978516 C 25.163079 45.910759 25.104757 45.838765 25.029297 45.773438 C 24.962268 45.708208 24.904733 45.641098 24.832031 45.578125 C 24.763921 45.511759 24.706778 45.440992 24.632812 45.376953 C 24.566817 45.31277 24.510919 45.245603 24.439453 45.183594 C 24.370657 45.116503 24.313033 45.045194 24.238281 44.980469 C 24.170532 44.914545 24.112559 44.844888 24.039062 44.78125 C 23.973043 44.717082 23.917159 44.649897 23.845703 44.587891 C 23.775321 44.519296 23.715246 44.44699 23.638672 44.380859 C 23.574415 44.318567 23.520539 44.253619 23.451172 44.193359 C 23.38198 44.125879 23.323202 44.055347 23.248047 43.990234 C 23.172864 43.917162 23.105625 43.841754 23.023438 43.771484 C 22.904128 43.643175 22.791762 43.513255 22.652344 43.392578 C 22.584961 43.32721 22.528031 43.258462 22.455078 43.195312 C 22.3871 43.129312 22.329501 43.059839 22.255859 42.996094 C 22.188997 42.93125 22.132869 42.863451 22.060547 42.800781 C 21.993533 42.735671 21.937734 42.666445 21.865234 42.603516 C 21.795998 42.536182 21.737199 42.465396 21.662109 42.400391 C 21.595226 42.335563 21.539107 42.267745 21.466797 42.205078 C 21.398776 42.13903 21.341213 42.069674 21.267578 42.005859 C 21.201026 41.941309 21.146125 41.872967 21.074219 41.810547 C 21.00424 41.742531 20.945047 41.671125 20.869141 41.605469 C 20.803546 41.541982 20.748495 41.475493 20.677734 41.414062 C 20.391268 41.135796 20.073539 40.869437 19.683594 40.638672 C 18.142955 39.727006 16.134738 38.824885 14.802734 37.972656 C 14.795793 37.944881 14.780858 37.916264 14.777344 37.888672 C 14.777344 37.888672 14.774438 37.921659 14.777344 37.955078 C 14.720974 37.91879 14.680751 37.883762 14.626953 37.847656 C 14.62709 37.846806 14.628846 37.830451 14.628906 37.830078 C 14.616308 37.82561 14.618796 37.809902 14.611328 37.800781 C 14.615599 37.815567 14.617843 37.830867 14.623047 37.845703 C 14.559541 37.803038 14.504951 37.761151 14.445312 37.71875 C 14.431835 37.688678 14.429688 37.658776 14.419922 37.628906 C 14.419362 37.632397 14.413613 37.683611 14.412109 37.693359 C 14.376191 37.667519 14.337104 37.642926 14.302734 37.617188 C 14.260782 37.543774 14.231382 37.470672 14.210938 37.398438 C 14.209986 37.404338 14.196516 37.502487 14.191406 37.537109 C 14.18316 37.530647 14.172204 37.524034 14.164062 37.517578 C 14.083717 37.401304 14.0319 37.287219 14.003906 37.173828 C 14.002747 37.181023 13.987641 37.294106 13.980469 37.34375 C 13.883302 37.208896 13.822015 37.07631 13.794922 36.945312 C 13.793934 36.951428 13.77942 37.073719 13.771484 37.128906 C 13.674942 36.991176 13.612673 36.854388 13.589844 36.720703 C 13.588893 36.726579 13.571294 36.854425 13.5625 36.916016 C 13.464541 36.772876 13.398532 36.630935 13.380859 36.492188 C 13.370241 36.557569 12.186172 43.923039 15.853516 47.089844 C 15.92286 47.156255 15.983473 47.229816 16.056641 47.292969 C 16.123701 47.357174 16.183265 47.427126 16.253906 47.488281 C 16.325516 47.557087 16.389128 47.631958 16.464844 47.697266 C 16.533927 47.763397 16.595069 47.835558 16.667969 47.898438 C 16.734732 47.962361 16.792948 48.032868 16.863281 48.09375 C 16.93483 48.162527 16.998545 48.237472 17.074219 48.302734 C 17.145202 48.370712 17.208164 48.445247 17.283203 48.509766 C 17.350256 48.573826 17.409799 48.644101 17.480469 48.705078 C 17.548156 48.769952 17.608297 48.840625 17.679688 48.902344 C 17.750229 48.970133 17.812134 49.04503 17.886719 49.109375 C 17.970465 49.189659 18.049214 49.274209 18.138672 49.349609 C 18.257248 49.472919 18.367066 49.603928 18.498047 49.716797 C 18.498047 49.716797 18.5 49.71875 18.5 49.71875 L 18.5 52.013672 L 18.445312 52.013672 L 18.445312 51.814453 L 18.419922 51.814453 L 18.246094 51.814453 L 18.246094 51.615234 L 18.222656 51.615234 L 18.046875 51.615234 L 18.046875 51.416016 L 18.025391 51.416016 L 17.845703 51.416016 L 17.845703 51.216797 L 17.828125 51.216797 L 17.646484 51.216797 L 17.646484 51.015625 L 17.630859 51.015625 L 17.447266 51.015625 L 17.447266 50.816406 L 17.433594 50.816406 L 17.248047 50.816406 L 17.248047 50.617188 L 17.236328 50.617188 L 17.048828 50.617188 L 17.048828 50.417969 L 17.039062 50.417969 L 16.849609 50.417969 L 16.849609 50.21875 L 16.841797 50.21875 L 16.648438 50.21875 L 16.648438 50.017578 L 16.644531 50.017578 L 16.449219 50.017578 L 16.449219 49.818359 L 16.447266 49.818359 L 16.25 49.818359 L 16.25 49.619141 L 15.125 49.619141 L 15.125 50.816406 L 14.998047 50.816406 L 14.998047 50.617188 L 14.974609 50.617188 L 14.798828 50.617188 L 14.798828 50.417969 L 14.779297 50.417969 L 14.599609 50.417969 L 14.599609 50.21875 L 14.583984 50.21875 L 14.398438 50.21875 L 14.398438 50.017578 L 14.390625 50.017578 L 14.199219 50.017578 L 14.199219 49.818359 L 14.195312 49.818359 L 14 49.818359 L 14 49.619141 L 11.75 49.619141 L 11.75 71.837891 L 11.949219 71.837891 L 11.949219 72.037109 L 11.955078 72.037109 L 12.148438 72.037109 L 12.148438 72.236328 L 12.158203 72.236328 L 12.349609 72.236328 L 12.349609 72.4375 L 12.363281 72.4375 L 12.548828 72.4375 L 12.548828 72.636719 L 12.566406 72.636719 L 12.748047 72.636719 L 12.748047 72.835938 L 12.771484 72.835938 L 12.947266 72.835938 L 12.947266 73.035156 L 12.974609 73.035156 L 13.146484 73.035156 L 13.146484 73.234375 L 13.179688 73.234375 L 13.345703 73.234375 L 13.345703 73.435547 L 13.382812 73.435547 L 13.546875 73.435547 L 13.546875 73.634766 L 13.587891 73.634766 L 13.746094 73.634766 L 13.746094 73.833984 L 13.791016 73.833984 L 13.945312 73.833984 L 13.945312 74.033203 L 13.996094 74.033203 L 14.144531 74.033203 L 14.144531 74.087891 L 5 74.087891 L 5 76.619141 L 5.1992188 76.619141 L 5.1992188 76.818359 L 5.3789062 76.818359 L 5.3984375 76.818359 L 5.3984375 77.017578 L 5.5996094 77.017578 L 5.5996094 77.21875 L 5.7988281 77.21875 L 5.7988281 77.417969 L 5.9980469 77.417969 L 5.9980469 77.617188 L 6.1972656 77.617188 L 6.1972656 77.816406 L 6.3964844 77.816406 L 6.3964844 78.015625 L 6.5976562 78.015625 L 6.5976562 78.216797 L 6.796875 78.216797 L 6.796875 78.416016 L 6.9960938 78.416016 L 6.9960938 78.615234 L 7.1953125 78.615234 L 7.1953125 78.814453 L 7.3945312 78.814453 L 7.3945312 79.013672 L 7.5957031 79.013672 L 7.5957031 79.214844 L 7.7949219 79.214844 L 7.7949219 79.414062 L 7.9941406 79.414062 L 7.9941406 79.613281 L 8.1933594 79.613281 L 8.1933594 79.8125 L 8.3925781 79.8125 L 8.3925781 80.011719 L 8.59375 80.011719 L 8.59375 80.212891 L 8.7929688 80.212891 L 8.7929688 80.412109 L 8.9921875 80.412109 L 8.9921875 80.611328 L 9.1914062 80.611328 L 9.1914062 80.810547 L 9.390625 80.810547 L 9.390625 81.009766 L 9.5898438 81.009766 L 9.5898438 81.208984 L 9.7910156 81.208984 L 9.7910156 81.410156 L 9.9902344 81.410156 L 9.9902344 81.609375 L 10.189453 81.609375 L 10.189453 81.808594 L 10.388672 81.808594 L 10.388672 82.007812 L 10.589844 82.007812 L 10.589844 82.207031 L 10.789062 82.207031 L 10.789062 82.408203 L 10.988281 82.408203 L 10.988281 82.607422 L 11.1875 82.607422 L 11.1875 82.806641 L 11.386719 82.806641 L 11.386719 83.005859 L 11.585938 83.005859 L 11.585938 83.205078 L 11.75 83.205078 L 11.75 89.763672 L 11.949219 89.763672 L 11.949219 89.962891 L 11.955078 89.962891 L 12.148438 89.962891 L 12.148438 90.162109 L 12.158203 90.162109 L 12.349609 90.162109 L 12.349609 90.363281 L 12.363281 90.363281 L 12.548828 90.363281 L 12.548828 90.5625 L 12.566406 90.5625 L 12.748047 90.5625 L 12.748047 90.761719 L 12.771484 90.761719 L 12.947266 90.761719 L 12.947266 90.960938 L 12.974609 90.960938 L 13.146484 90.960938 L 13.146484 91.160156 L 13.179688 91.160156 L 13.347656 91.160156 L 13.347656 91.361328 L 13.382812 91.361328 L 13.546875 91.361328 L 13.546875 91.560547 L 13.587891 91.560547 L 13.746094 91.560547 L 13.746094 91.759766 L 13.791016 91.759766 L 13.945312 91.759766 L 13.945312 91.958984 L 13.996094 91.958984 L 14.144531 91.958984 L 14.144531 92.158203 L 14.199219 92.158203 L 14.345703 92.158203 L 14.345703 92.359375 L 14.404297 92.359375 L 14.544922 92.359375 L 14.544922 92.558594 L 14.607422 92.558594 L 14.744141 92.558594 L 14.744141 92.757812 L 14.8125 92.757812 L 14.943359 92.757812 L 14.943359 92.957031 L 15.015625 92.957031 L 15.142578 92.957031 L 15.142578 93.15625 L 15.220703 93.15625 L 15.34375 93.15625 L 15.34375 93.357422 L 15.423828 93.357422 L 15.542969 93.357422 L 15.542969 93.556641 L 15.628906 93.556641 L 15.742188 93.556641 L 15.742188 93.755859 L 15.832031 93.755859 L 15.941406 93.755859 L 15.941406 93.955078 L 16.037109 93.955078 L 16.140625 93.955078 L 16.140625 94.154297 L 16.240234 94.154297 L 16.339844 94.154297 L 16.339844 94.353516 L 16.445312 94.353516 L 16.541016 94.353516 L 16.541016 94.554688 L 16.648438 94.554688 L 16.740234 94.554688 L 16.740234 94.753906 L 16.853516 94.753906 L 16.939453 94.753906 L 16.939453 94.953125 L 17.056641 94.953125 L 17.138672 94.953125 L 17.138672 95.152344 L 17.261719 95.152344 L 17.339844 95.152344 L 17.339844 95.351562 L 17.464844 95.351562 L 17.539062 95.351562 L 17.539062 95.552734 L 17.669922 95.552734 L 17.738281 95.552734 L 17.738281 95.751953 L 17.873047 95.751953 L 17.9375 95.751953 L 17.9375 95.951172 L 18.078125 95.951172 L 18.136719 95.951172 L 18.136719 96.150391 L 18.28125 96.150391 L 18.335938 96.150391 L 18.335938 96.349609 L 18.486328 96.349609 L 18.537109 96.349609 L 18.537109 96.550781 L 18.689453 96.550781 L 18.736328 96.550781 L 18.736328 96.75 L 18.892578 96.75 L 18.935547 96.75 L 18.935547 96.949219 L 19.097656 96.949219 L 19.134766 96.949219 L 19.134766 97.148438 L 19.302734 97.148438 L 19.333984 97.148438 L 19.333984 97.347656 L 19.505859 97.347656 L 19.535156 97.347656 L 19.535156 97.548828 L 19.708984 97.548828 L 19.734375 97.548828 L 19.734375 97.748047 L 19.914062 97.748047 L 19.933594 97.748047 L 19.933594 97.947266 L 20.117188 97.947266 L 20.132812 97.947266 L 20.132812 98.146484 L 20.322266 98.146484 L 20.332031 98.146484 L 20.332031 98.345703 L 20.527344 98.345703 L 20.533203 98.345703 L 20.533203 98.546875 L 20.730469 98.546875 L 20.732422 98.546875 L 20.732422 98.746094 L 20.931641 98.746094 L 20.931641 98.945312 L 21.130859 98.945312 L 21.130859 99.144531 L 21.330078 99.144531 L 21.330078 99.34375 L 21.53125 99.34375 L 21.53125 99.544922 L 21.730469 99.544922 L 21.730469 99.744141 L 21.929688 99.744141 L 21.929688 99.943359 L 22.128906 99.943359 L 22.128906 100 L 95 100 C 97.77 100 100 97.77 100 95 L 100 46.662109 C 99.990199 46.591133 99.974609 46.472656 99.974609 46.472656 C 99.96858 46.51999 99.903402 46.569277 99.822266 46.621094 C 99.796855 46.412783 99.775391 46.273438 99.775391 46.273438 C 99.769379 46.320645 99.702874 46.370133 99.621094 46.421875 C 99.595611 46.212946 99.574219 46.072266 99.574219 46.072266 C 99.568252 46.119123 99.503686 46.169298 99.421875 46.220703 C 99.396547 46.013473 99.375 45.873047 99.375 45.873047 C 99.369081 45.919512 99.30439 45.970464 99.222656 46.021484 C 99.197466 45.815776 99.175781 45.673828 99.175781 45.673828 C 99.1699 45.720003 99.105384 45.769556 99.023438 45.820312 C 98.998401 45.616293 98.976562 45.474609 98.976562 45.474609 C 98.970745 45.520291 98.905817 45.568887 98.824219 45.619141 C 98.79934 45.416809 98.777344 45.275391 98.777344 45.275391 C 98.771537 45.320997 98.705484 45.367723 98.623047 45.417969 C 98.598332 45.217401 98.578125 45.074219 98.578125 45.074219 L 98.576172 45.074219 C 98.570433 45.119268 98.505749 45.167126 98.423828 45.216797 C 98.399268 45.01788 98.376953 44.875 98.376953 44.875 C 98.371195 44.920204 98.306101 44.969592 98.222656 45.019531 C 98.198023 44.81999 98.177734 44.675781 98.177734 44.675781 C 98.172048 44.720435 98.106394 44.768987 98.023438 44.818359 C 97.99896 44.620489 97.978516 44.476562 97.978516 44.476562 C 97.972887 44.520736 97.906887 44.568299 97.824219 44.617188 C 97.7999 44.420986 97.779297 44.277344 97.779297 44.277344 C 97.773892 44.319776 97.703761 44.365201 97.625 44.412109 C 97.601232 44.221436 97.578125 44.076172 97.578125 44.076172 C 97.572695 44.118808 97.504291 44.165645 97.423828 44.212891 C 97.400219 44.023874 97.378906 43.876953 97.378906 43.876953 C 97.373523 43.919226 97.305137 43.964815 97.224609 44.011719 C 97.201159 43.824337 97.179688 43.677734 97.179688 43.677734 C 97.174313 43.719907 97.106752 43.765621 97.025391 43.8125 C 97.00189 43.624715 96.980469 43.478516 96.980469 43.478516 C 96.975039 43.521142 96.908035 43.565761 96.824219 43.613281 C 96.800671 43.425127 96.78125 43.279297 96.78125 43.279297 C 96.775835 43.321817 96.709644 43.366568 96.625 43.414062 C 96.601373 43.225226 96.582031 43.078125 96.582031 43.078125 L 96.580078 43.078125 C 96.574747 43.119996 96.509687 43.166065 96.425781 43.212891 C 96.40249 43.027396 96.380859 42.878906 96.380859 42.878906 C 96.375561 42.920491 96.310769 42.967083 96.226562 43.013672 C 96.203221 42.827782 96.181641 42.679688 96.181641 42.679688 C 96.176416 42.720616 96.110769 42.764639 96.027344 42.810547 C 96.004371 42.628296 95.982422 42.480469 95.982422 42.480469 C 95.977268 42.520772 95.910849 42.564112 95.828125 42.609375 C 95.805313 42.428744 95.783203 42.28125 95.783203 42.28125 C 95.778147 42.321136 95.709605 42.363322 95.626953 42.408203 C 95.604505 42.231113 95.583984 42.082031 95.583984 42.082031 L 95.583984 42.080078 C 95.578955 42.119677 95.508685 42.164334 95.425781 42.208984 C 95.40325 42.031185 95.382812 41.880859 95.382812 41.880859 C 95.377858 41.919806 95.308654 41.961881 95.226562 42.005859 C 95.204401 41.831622 95.183594 41.681641 95.183594 41.681641 C 95.178706 41.719974 95.108713 41.761333 95.027344 41.804688 C 95.005343 41.632041 94.984375 41.482422 94.984375 41.482422 C 94.979557 41.520131 94.908718 41.560796 94.828125 41.603516 C 94.806454 41.434029 94.785156 41.283203 94.785156 41.283203 C 94.78037 41.320563 94.709465 41.361864 94.628906 41.404297 C 94.607184 41.234402 94.583984 41.083984 94.583984 41.083984 L 94.583984 41.082031 C 94.57933 41.118766 94.509404 41.161326 94.429688 41.203125 C 94.408086 41.034429 94.384766 40.882812 94.384766 40.882812 C 94.380134 40.919287 94.308275 40.960338 94.228516 41.001953 C 94.207105 40.835085 94.185547 40.683594 94.185547 40.683594 C 94.180958 40.719644 94.106602 40.759547 94.027344 40.800781 C 94.0061 40.635526 93.986328 40.484375 93.986328 40.484375 C 93.981805 40.519816 93.906301 40.558984 93.828125 40.599609 C 93.807206 40.437409 93.787109 40.285156 93.787109 40.285156 C 93.782658 40.319928 93.705753 40.35848 93.628906 40.398438 C 93.60815 40.237785 93.587891 40.085938 93.587891 40.085938 C 93.583464 40.120407 93.50582 40.157537 93.429688 40.197266 C 93.409042 40.037684 93.386719 39.884766 93.386719 39.884766 C 93.382712 39.91643 93.29848 39.953814 93.228516 39.990234 C 93.208672 39.837969 93.1875 39.685547 93.1875 39.685547 C 93.1835 39.717059 93.098708 39.752685 93.029297 39.789062 C 93.009768 39.639674 92.988281 39.486328 92.988281 39.486328 C 92.984283 39.517722 92.898459 39.553468 92.830078 39.589844 C 92.81051 39.440147 92.789063 39.287109 92.789062 39.287109 C 92.785014 39.31878 92.697888 39.355716 92.630859 39.392578 C 92.611047 39.240755 92.589844 39.087891 92.589844 39.087891 C 92.585737 39.119867 92.493706 39.156002 92.429688 39.193359 C 92.409785 39.040776 92.388672 38.886719 92.388672 38.886719 C 92.384872 38.916929 92.297499 38.952962 92.238281 38.988281 C 92.23745 38.994742 92.233446 39.001341 92.232422 39.007812 C 92.211179 38.843131 92.189453 38.6875 92.189453 38.6875 C 92.185953 38.71522 92.105059 38.746907 92.050781 38.779297 C 92.048627 38.796034 92.038589 38.813273 92.035156 38.830078 C 92.011567 38.643519 91.990234 38.488281 91.990234 38.488281 C 91.987034 38.513511 91.912629 38.542786 91.863281 38.572266 C 91.859864 38.598811 91.846452 38.625628 91.839844 38.652344 C 91.813843 38.442378 91.791016 38.289062 91.791016 38.289062 C 91.788116 38.311794 91.722152 38.336711 91.677734 38.363281 C 91.672939 38.400536 91.655563 38.438975 91.644531 38.476562 C 91.615886 38.239729 91.591797 38.089844 91.591797 38.089844 L 91.589844 38.089844 C 91.585802 38.10989 91.529189 38.132928 91.490234 38.15625 C 91.484158 38.20345 91.463277 38.251095 91.447266 38.298828 C 91.41621 38.036307 91.390625 37.888672 91.390625 37.888672 C 91.388325 37.906422 91.337294 37.926536 91.302734 37.947266 C 91.294886 38.008233 91.272311 38.070963 91.248047 38.132812 C 91.215659 37.855624 91.191406 37.689453 91.191406 37.689453 C 91.189506 37.704713 91.144864 37.722424 91.115234 37.740234 C 91.106061 37.81149 91.084158 37.884575 91.052734 37.957031 C 91.019331 37.668442 90.992187 37.490234 90.992188 37.490234 C 90.990588 37.502994 90.954386 37.518303 90.929688 37.533203 C 90.919335 37.613619 90.892005 37.693454 90.853516 37.775391 C 90.819347 37.4781 90.792969 37.291016 90.792969 37.291016 C 90.791669 37.301286 90.761958 37.312249 90.742188 37.324219 C 90.731095 37.410379 90.699475 37.498038 90.65625 37.585938 C 90.621627 37.283518 90.59375 37.091797 90.59375 37.091797 C 90.592759 37.099597 90.569526 37.108128 90.554688 37.117188 C 90.542727 37.210088 90.506135 37.303525 90.457031 37.398438 C 90.421952 37.090803 90.392578 36.890625 90.392578 36.890625 C 90.391904 36.895925 90.377087 36.902063 90.367188 36.908203 C 90.354485 37.006872 90.314151 37.108054 90.259766 37.208984 C 90.224229 36.89609 90.193359 36.691406 90.193359 36.691406 C 90.193003 36.694206 90.186641 36.697972 90.181641 36.701172 C 90.168084 36.806481 90.121318 36.913611 90.060547 37.021484 C 90.024491 36.70254 89.994141 36.492188 89.994141 36.492188 C 89.935577 36.94711 89.403431 37.42905 88.640625 37.925781 C 88.623978 37.908483 88.604656 37.892257 88.587891 37.875 C 88.525271 37.808113 88.454992 37.744013 88.390625 37.677734 C 88.330154 37.613118 88.263274 37.550378 88.201172 37.486328 C 88.13541 37.415927 88.061836 37.349026 87.994141 37.279297 C 87.927156 37.207694 87.85219 37.139265 87.783203 37.068359 C 87.722121 37.0032 87.652586 36.941534 87.589844 36.876953 C 87.526559 36.809356 87.455695 36.74471 87.390625 36.677734 C 87.330776 36.613807 87.26457 36.551654 87.203125 36.488281 C 87.137363 36.41788 87.063789 36.350979 86.996094 36.28125 C 86.929109 36.209647 86.854143 36.141219 86.785156 36.070312 C 86.724074 36.005154 86.654539 35.943487 86.591797 35.878906 C 86.528513 35.811309 86.457648 35.746662 86.392578 35.679688 C 86.332729 35.61576 86.266523 35.553607 86.205078 35.490234 C 86.138702 35.419176 86.06444 35.351624 85.996094 35.28125 C 85.929743 35.210352 85.855424 35.14248 85.787109 35.072266 C 85.726027 35.007107 85.656493 34.94544 85.59375 34.880859 C 85.530466 34.813262 85.459601 34.748616 85.394531 34.681641 C 85.334683 34.617713 85.268476 34.55556 85.207031 34.492188 C 85.140655 34.421129 85.066393 34.353577 84.998047 34.283203 C 84.931696 34.212305 84.857378 34.144433 84.789062 34.074219 C 84.727981 34.00906 84.658446 33.947393 84.595703 33.882812 C 84.532419 33.815216 84.461554 33.75057 84.396484 33.683594 C 84.336636 33.619666 84.270429 33.557513 84.208984 33.494141 C 84.142608 33.423082 84.068346 33.35553 84 33.285156 C 83.933649 33.214258 83.85933 33.146386 83.791016 33.076172 C 83.729933 33.011013 83.660399 32.949346 83.597656 32.884766 C 83.534372 32.817169 83.463507 32.752523 83.398438 32.685547 C 83.335818 32.61866 83.265539 32.55456 83.201172 32.488281 C 83.140701 32.423665 83.07382 32.360925 83.011719 32.296875 C 82.942273 32.22253 82.864572 32.15172 82.792969 32.078125 C 82.731886 32.012966 82.662352 31.951299 82.599609 31.886719 C 82.536325 31.819122 82.46546 31.754476 82.400391 31.6875 C 82.337771 31.620613 82.267492 31.556513 82.203125 31.490234 C 82.142654 31.425618 82.075773 31.362878 82.013672 31.298828 C 81.944226 31.224483 81.866525 31.153673 81.794922 31.080078 C 81.73384 31.014919 81.664305 30.953252 81.601562 30.888672 C 81.538279 30.821075 81.467413 30.756429 81.402344 30.689453 C 81.339725 30.622567 81.269445 30.558465 81.205078 30.492188 C 81.144607 30.427571 81.077727 30.364831 81.015625 30.300781 C 80.949863 30.230381 80.876289 30.163479 80.808594 30.09375 C 80.741046 30.021546 80.665287 29.952355 80.595703 29.880859 C 80.535244 29.81639 80.466381 29.75531 80.404297 29.691406 C 80.341678 29.62452 80.271398 29.560419 80.207031 29.494141 C 80.14656 29.429524 80.07968 29.366784 80.017578 29.302734 C 79.951816 29.232334 79.878242 29.165432 79.810547 29.095703 C 79.743563 29.024101 79.668596 28.955671 79.599609 28.884766 C 79.538527 28.819607 79.468992 28.75794 79.40625 28.693359 C 79.342966 28.625763 79.272101 28.561116 79.207031 28.494141 C 79.147183 28.430214 79.080976 28.36806 79.019531 28.304688 C 78.953769 28.234286 78.880195 28.167385 78.8125 28.097656 C 78.745516 28.026054 78.670549 27.957624 78.601562 27.886719 C 78.540481 27.82156 78.470945 27.759894 78.408203 27.695312 C 78.344919 27.627716 78.274054 27.563069 78.208984 27.496094 C 78.149136 27.432167 78.082929 27.370013 78.021484 27.306641 C 77.955722 27.23624 77.882149 27.169338 77.814453 27.099609 C 77.747469 27.028007 77.672502 26.959577 77.603516 26.888672 C 77.542433 26.823513 77.472899 26.761846 77.410156 26.697266 C 77.346872 26.629669 77.276007 26.565022 77.210938 26.498047 C 77.151089 26.43412 77.084881 26.371966 77.023438 26.308594 C 76.957061 26.237536 76.882799 26.169983 76.814453 26.099609 C 76.748103 26.028711 76.673783 25.960839 76.605469 25.890625 C 76.544387 25.825467 76.474852 25.763799 76.412109 25.699219 C 76.348825 25.631622 76.27796 25.566975 76.212891 25.5 C 75.249461 24.470917 74.082778 23.510378 72.675781 22.677734 C 68.17276 20.013014 62.363975 17.377761 58.371094 14.878906 C 58.368405 14.861374 58.361605 14.84368 58.359375 14.826172 L 58.357422 14.826172 C 58.357422 14.826172 58.35172 14.86622 58.351562 14.867188 C 58.300804 14.835381 58.239607 14.803246 58.189453 14.771484 C 58.179943 14.72343 58.164301 14.674825 58.158203 14.626953 C 58.158203 14.626953 58.141844 14.734563 58.140625 14.742188 C 58.100882 14.716935 58.051069 14.691238 58.011719 14.666016 C 57.992412 14.586513 57.969048 14.506741 57.958984 14.427734 C 57.958984 14.427734 57.936676 14.593726 57.933594 14.613281 C 57.896018 14.589045 57.863374 14.565225 57.826172 14.541016 C 57.797177 14.436623 57.772954 14.332059 57.759766 14.228516 C 57.759766 14.228516 57.731882 14.440416 57.726562 14.474609 C 57.700505 14.457509 57.676257 14.440915 57.650391 14.423828 C 57.608488 14.291387 57.577243 14.160382 57.560547 14.029297 C 57.560547 14.029297 57.527538 14.281855 57.519531 14.333984 C 57.507749 14.326109 57.496115 14.318419 57.484375 14.310547 C 57.426922 14.149022 57.381647 13.989602 57.361328 13.830078 C 57.361328 13.830078 57.323227 14.114902 57.3125 14.185547 C 57.23996 13.999014 57.183577 13.812787 57.160156 13.628906 C 57.160156 13.628906 57.12206 13.913701 57.111328 13.984375 C 57.039215 13.798514 56.984274 13.612914 56.960938 13.429688 C 56.960938 13.429688 56.92295 13.715684 56.912109 13.787109 C 56.83957 13.600576 56.78514 13.41435 56.761719 13.230469 C 56.761719 13.230469 56.723731 13.516465 56.712891 13.587891 C 56.640194 13.40111 56.585952 13.215372 56.5625 13.03125 C 56.5625 13.03125 56.524513 13.317246 56.513672 13.388672 C 56.440975 13.201891 56.386733 13.016153 56.363281 12.832031 C 56.363281 12.832031 56.32518 13.116855 56.314453 13.1875 C 56.241914 13.000967 56.18553 12.81474 56.162109 12.630859 C 56.162109 12.630859 56.12592 12.915968 56.115234 12.986328 C 56.042984 12.800251 55.986255 12.615079 55.962891 12.431641 C 55.962891 12.431641 55.924903 12.717638 55.914062 12.789062 C 55.841524 12.602531 55.787093 12.416303 55.763672 12.232422 C 55.763672 12.232422 55.725685 12.518418 55.714844 12.589844 C 55.642147 12.403063 55.587905 12.217325 55.564453 12.033203 C 55.564453 12.033203 55.526466 12.319199 55.515625 12.390625 C 55.442928 12.203844 55.388686 12.018106 55.365234 11.833984 C 55.365234 11.833984 55.327134 12.118808 55.316406 12.189453 C 55.243867 12.00292 55.187484 11.816695 55.164062 11.632812 C 55.164062 11.632812 55.127873 11.917921 55.117188 11.988281 C 55.044936 11.802204 54.988208 11.617032 54.964844 11.433594 C 54.964844 11.433594 54.926856 11.71959 54.916016 11.791016 C 54.843476 11.604483 54.789046 11.418256 54.765625 11.234375 C 54.765625 11.234375 54.727638 11.520371 54.716797 11.591797 C 54.6441 11.405016 54.589858 11.219278 54.566406 11.035156 C 54.566406 11.035156 54.528419 11.321152 54.517578 11.392578 C 54.444881 11.205797 54.390639 11.020058 54.367188 10.835938 C 54.367188 10.835938 54.329091 11.120732 54.318359 11.191406 C 54.24582 11.004873 54.189437 10.818647 54.166016 10.634766 C 54.166016 10.634766 54.129826 10.919874 54.119141 10.990234 C 54.04689 10.804157 53.990162 10.618985 53.966797 10.435547 C 53.966797 10.435547 53.92881 10.721543 53.917969 10.792969 C 53.845429 10.606436 53.790999 10.420209 53.767578 10.236328 z M 13.589844 36.720703 C 13.589872 36.72053 13.589824 36.714966 13.589844 36.714844 C 13.578144 36.710464 13.580078 36.691406 13.580078 36.691406 C 13.58132 36.701157 13.588175 36.71093 13.589844 36.720703 z M 13.794922 36.945312 C 13.794965 36.945048 13.796848 36.937668 13.796875 36.9375 C 13.773575 36.92903 13.779297 36.890625 13.779297 36.890625 C 13.781581 36.908555 13.791198 36.927307 13.794922 36.945312 z M 14.003906 37.173828 C 14.004 37.173249 14.005812 37.160447 14.005859 37.160156 C 13.970929 37.147606 13.980469 37.091797 13.980469 37.091797 C 13.983922 37.118906 13.99717 37.146544 14.003906 37.173828 z M 14.210938 37.398438 C 14.21103 37.397855 14.212843 37.385057 14.212891 37.384766 C 14.204594 37.381804 14.206124 37.371232 14.201172 37.365234 C 14.203775 37.376274 14.207805 37.387369 14.210938 37.398438 z M 14.419922 37.628906 C 14.420108 37.627747 14.421801 37.607875 14.421875 37.607422 C 14.410892 37.603516 14.41258 37.590127 14.40625 37.582031 C 14.410316 37.597597 14.414814 37.613284 14.419922 37.628906 z M 57.556641 37.697266 C 57.59345 37.757413 57.630567 37.8172 57.667969 37.876953 C 57.648705 37.902305 57.618387 37.929298 57.591797 37.955078 C 57.577741 37.853617 57.562904 37.737811 57.556641 37.697266 z M 57.777344 38.054688 C 57.792153 38.077826 57.805412 38.101924 57.820312 38.125 C 57.810989 38.135054 57.801415 38.146133 57.791016 38.15625 C 57.785448 38.116004 57.781837 38.085718 57.777344 38.054688 z "
     id="path4930" />
  <path
     style="fill:#009432;stroke-width:1.68900812;fill-opacity:1"
     d="m 58.94645,20.998957 c 13.229347,8.213861 13.131315,19.221705 13.559805,28.62432 L 69.125,49.619902 68.895061,45.423146 c -0.860074,0.0034 -1.729676,-0.06919 -2.303527,-0.270079 C 49.057261,39.010376 53.768446,10.236723 53.768446,10.236723 c 0.477191,3.746464 11.495745,8.053954 18.907425,12.440104 7.411691,4.38615 8.226428,12.277597 7.109573,15.465645 -1.116855,3.188047 -4.883625,5.000355 -4.883625,5.000355 C 74.886744,26.583209 58.94645,20.998968 58.94645,20.998968 Z"
     id="path4671"
     inkscape:connector-curvature="0" />
  <rect
     style="fill:#000000;stroke-width:0.55897331"
     height="22.21875"
     id="barcode_bar1"
     width="2.25"
     x="11.75"
     y="49.619904" />
  <rect
     style="fill:#000000;stroke-width:0.55897331"
     height="22.21875"
     id="barcode_bar3"
     width="1.125"
     x="15.125"
     y="49.619904" />
  <rect
     style="fill:#000000;stroke-width:0.55897331"
     height="22.21875"
     id="barcode_bar5"
     width="1.125"
     x="18.5"
     y="49.619904" />
  <rect
     style="fill:#000000;stroke-width:0.55897331"
     height="22.21875"
     id="barcode_bar7"
     width="1.125"
     x="24.125"
     y="49.619904" />
  <rect
     style="fill:#000000;stroke-width:0.55897331"
     height="22.21875"
     id="barcode_bar9"
     width="1.125"
     x="28.625"
     y="49.619904" />
  <rect
     style="fill:#000000;stroke-width:0.55897331"
     height="22.21875"
     id="barcode_bar11"
     width="2.25"
     x="30.875"
     y="49.619904" />
  <rect
     style="fill:#000000;stroke-width:0.55897331"
     height="22.21875"
     id="barcode_bar13"
     width="1.125"
     x="36.5"
     y="49.619904" />
  <rect
     style="fill:#000000;stroke-width:0.55897331"
     height="22.21875"
     id="barcode_bar15"
     width="1.125"
     x="39.875"
     y="49.619904" />
  <rect
     style="fill:#000000;stroke-width:0.55897331"
     height="22.21875"
     id="barcode_bar17"
     width="2.25"
     x="42.125"
     y="49.619904" />
  <rect
     style="fill:#000000;stroke-width:0.55897331"
     height="22.21875"
     id="barcode_bar19"
     width="2.25"
     x="48.875"
     y="49.619904" />
  <rect
     style="fill:#000000;stroke-width:0.55897331"
     height="22.21875"
     id="barcode_bar21"
     width="4.5"
     x="52.25"
     y="49.619904" />
  <rect
     style="fill:#000000;stroke-width:0.55897331"
     height="22.21875"
     id="barcode_bar23"
     width="2.25"
     x="57.875"
     y="49.619904" />
  <rect
     style="fill:#000000;stroke-width:0.55897331"
     height="22.21875"
     id="barcode_bar25"
     width="3.375"
     x="61.25"
     y="49.619904" />
  <rect
     style="fill:#000000;stroke-width:0.55897331"
     height="22.21875"
     id="barcode_bar27"
     width="2.25"
     x="65.75"
     y="49.619904" />
  <rect
     style="fill:#000000;stroke-width:0.55897331"
     height="22.21875"
     id="barcode_bar29"
     width="3.375"
     x="69.125"
     y="49.619904" />
  <rect
     style="fill:#000000;stroke-width:0.55897331"
     height="22.21875"
     id="barcode_bar31"
     width="2.25"
     x="73.625"
     y="49.619904" />
  <rect
     style="fill:#000000;stroke-width:0.55897331"
     height="22.21875"
     id="barcode_bar33"
     width="3.375"
     x="79.25"
     y="49.619904" />
  <rect
     style="fill:#000000;stroke-width:0.55897331"
     height="22.21875"
     id="barcode_bar35"
     width="1.125"
     x="83.75"
     y="49.619904" />
  <rect
     style="fill:#000000;stroke-width:0.55897331"
     height="22.21875"
     id="barcode_bar37"
     width="2.25"
     x="86"
     y="49.619904" />
  <path
     style="fill:#a3cb38;stroke-width:0.56300265;fill-opacity:1"
     d="m 15.107146,40.079587 c 4.409786,2.737957 4.377105,6.407235 4.519935,9.54144 L 18.5,49.619902 18.423388,48.220976 c -0.286696,0.0011 -0.576563,-0.02306 -0.767847,-0.09 -5.844757,-2.047557 -4.274362,-11.638778 -4.274362,-11.638778 0.159064,1.248818 3.831911,2.684655 6.302479,4.146694 2.470556,1.46205 2.742142,4.092536 2.369857,5.155222 -0.372296,1.062675 -1.627886,1.666778 -1.627886,1.666778 -0.0045,-5.519869 -5.318449,-7.381283 -5.318449,-7.381283 z"
     id="path4826"
     inkscape:connector-curvature="0" />
  <path
     style="fill:#a3cb38;stroke-width:0.56300265;fill-opacity:1"
     d="m 88.267854,40.079587 c -4.409786,2.737957 -4.377105,6.407235 -4.519935,9.54144 l 1.127081,-0.0011 0.07661,-1.398926 c 0.286695,0.0011 0.576563,-0.02306 0.767847,-0.09 5.844757,-2.047557 4.27437,-11.638778 4.27437,-11.638778 -0.159064,1.248818 -3.831919,2.684655 -6.302487,4.146694 -2.470556,1.46205 -2.742142,4.092536 -2.369857,5.155222 0.372296,1.062675 1.627886,1.666778 1.627886,1.666778 0.0045,-5.519869 5.318449,-7.381283 5.318449,-7.381283 z"
     id="path4828"
     inkscape:connector-curvature="0" />
  <path
     style="fill:#52b035;stroke-width:1.12600493;fill-opacity:1"
     d="m 39.910719,30.539283 c -8.819584,5.475904 -8.754222,12.814459 -9.039881,19.082869 l 2.254162,-0.0022 0.153225,-2.797853 c 0.57339,0.0023 1.153125,-0.04612 1.535693,-0.18 11.689515,-4.095112 8.548728,-23.277543 8.548728,-23.277543 -0.318127,2.497635 -7.663826,5.36931 -12.604961,8.293387 -4.941101,2.9241 -5.484274,8.185062 -4.739704,10.310434 0.744593,2.12535 3.255761,3.333555 3.255761,3.333555 0.009,-11.039726 10.636898,-14.762554 10.636898,-14.762554 z"
     id="path4830"
     inkscape:connector-curvature="0" />
  <rect
     style="fill:#000000;stroke-width:0.39138842"
     height="10.893147"
     id="rect4832"
     width="2.25"
     x="11.75"
     y="78.869904" />
  <rect
     style="fill:#000000;stroke-width:0.3913925"
     height="10.893374"
     id="rect4834"
     width="1.125"
     x="15.125"
     y="78.869904" />
  <rect
     style="fill:#000000;stroke-width:0.31630412"
     height="7.1145453"
     id="rect4836"
     width="1.125"
     x="18.5"
     y="78.869904" />
  <rect
     style="fill:#000000;stroke-width:0.31630412"
     height="7.1145453"
     id="rect4838"
     width="1.125"
     x="24.125"
     y="78.869904" />
  <rect
     style="fill:#000000;stroke-width:0.31630412"
     height="7.1145453"
     id="rect4840"
     width="1.125"
     x="28.625"
     y="78.869904" />
  <rect
     style="fill:#000000;stroke-width:0.31630412"
     height="7.1145453"
     id="rect4842"
     width="2.25"
     x="30.875"
     y="78.869904" />
  <rect
     style="fill:#000000;stroke-width:0.31630412"
     height="7.1145453"
     id="rect4844"
     width="1.125"
     x="36.5"
     y="78.869904" />
  <rect
     style="fill:#000000;stroke-width:0.31630412"
     height="7.1145453"
     id="rect4846"
     width="1.125"
     x="39.875"
     y="78.869904" />
  <rect
     style="fill:#000000;stroke-width:0.31630412"
     height="7.1145453"
     id="rect4848"
     width="2.25"
     x="42.125"
     y="78.869904" />
  <rect
     style="fill:#000000;stroke-width:0.31630412"
     height="7.1145453"
     id="rect4850"
     width="2.25"
     x="48.875"
     y="78.869904" />
  <rect
     style="fill:#000000;stroke-width:0.31630412"
     height="7.1145453"
     id="rect4852"
     width="4.5"
     x="52.25"
     y="78.869904" />
  <rect
     style="fill:#000000;stroke-width:0.31630412"
     height="7.1145453"
     id="rect4854"
     width="2.25"
     x="57.875"
     y="78.869904" />
  <rect
     style="fill:#000000;stroke-width:0.31630412"
     height="7.1145453"
     id="rect4856"
     width="3.375"
     x="61.25"
     y="78.869904" />
  <rect
     style="fill:#000000;stroke-width:0.31630412"
     height="7.1145453"
     id="rect4858"
     width="2.25"
     x="65.75"
     y="78.869904" />
  <rect
     style="fill:#000000;stroke-width:0.31630412"
     height="7.1145453"
     id="rect4860"
     width="3.375"
     x="69.125"
     y="78.869904" />
  <rect
     style="fill:#000000;stroke-width:0.31630412"
     height="7.1145453"
     id="rect4862"
     width="2.25"
     x="73.625"
     y="78.869904" />
  <rect
     style="fill:#000000;stroke-width:0.31630412"
     height="7.1145453"
     id="rect4864"
     width="3.375"
     x="79.25"
     y="78.869904" />
  <rect
     style="fill:#000000;stroke-width:0.3913925"
     height="10.893374"
     id="rect4866"
     width="1.125"
     x="83.75"
     y="78.869904" />
  <rect
     style="fill:#000000;stroke-width:0.3913925"
     height="10.893374"
     id="rect4868"
     width="2.25"
     x="86"
     y="78.869904" />
  <rect
     style="opacity:1;fill:#ea2027;fill-opacity:1;stroke:none;stroke-width:0.36607012;stroke-linecap:butt;stroke-linejoin:round;stroke-miterlimit:4;stroke-dasharray:none;stroke-opacity:1;paint-order:normal"
     height="2.53125"
     id="rect4870"
     width="90"
     x="5"
     y="74.088654" />
</svg>
