<?xml version="1.0" encoding="UTF-8" standalone="no"?>
<svg
	height="256"
	id="svg4"
	version="1.1"
	viewBox="0 0 256 256"
	width="256"
	xmlns="http://www.w3.org/2000/svg"
	xmlns:cc="http://creativecommons.org/ns#"
	xmlns:dc="http://purl.org/dc/elements/1.1/"
	xmlns:inkscape="http://www.inkscape.org/namespaces/inkscape"
	xmlns:rdf="http://www.w3.org/1999/02/22-rdf-syntax-ns#"
	xmlns:sodipodi="http://sodipodi.sourceforge.net/DTD/sodipodi-0.dtd"
	inkscape:export-filename="D:\workspaces\web-intellij\Barcodr\img\logo.png"
	inkscape:export-xdpi="96"
	inkscape:export-ydpi="96"
	inkscape:version="0.92.1 r15371"
	sodipodi:docname="logo.svg">
  <sodipodi:namedview
     bordercolor="#666666"
     borderopacity="1"
     gridtolerance="10"
     guidetolerance="10"
     id="namedview6"
     objecttolerance="10"
     pagecolor="#ffffff"
     showgrid="true"
     inkscape:current-layer="svg4"
     inkscape:cx="223.1068"
     inkscape:cy="133.53591"
     inkscape:pageopacity="0"
     inkscape:pageshadow="2"
     inkscape:window-height="1017"
     inkscape:window-maximized="1"
     inkscape:window-width="1920"
     inkscape:window-x="-8"
     inkscape:window-y="-8"
     inkscape:zoom="1.4142136">
    <inkscape:grid
       id="grid4502"
       type="xygrid" />
  </sodipodi:namedview>
  <metadata
     id="metadata10">
    <rdf:RDF>
      <cc:Work
         rdf:about="">
        <dc:format>image/svg+xml</dc:format>
        <dc:type
           rdf:resource="http://purl.org/dc/dcmitype/StillImage" />
        <dc:title></dc:title>
      </cc:Work>
    </rdf:RDF>
  </metadata>
  <defs
     id="defs8" />
  <path
     style="fill:#338000;stroke-width:2.70449352"
     d="M 0,0 V 256 H 4.5625001 V 0 Z M 6.8541666,0 V 256 H 9.1458334 V 0 Z M 13.708333,0 V 256 H 16 V 0 Z M 25.145834,0 V 256 H 27.4375 V 0 Z m 9.145833,0 V 256 H 36.5625 V 149.35413 c -1.267506,-3.78869 -2.166666,-7.82218 -2.166666,-12 0,-3.41546 0.863552,-7.66176 2.166666,-12.16661 V 0 Z m 4.562499,0 v 118.47915 c 1.2543,-3.0512 2.744618,-6.15051 4.583334,-9.31254 V 0 Z M 50.291667,0 V 99.104213 C 51.013385,98.20608 51.787663,97.32224 52.5625,96.437547 V 0 Z m 6.854167,0 v 91.62496 c 0.75168,-0.7296 1.499343,-1.45504 2.291666,-2.166613 V 0 Z m 4.562499,0 V 87.541653 C 63.170985,86.320853 64.699646,85.147307 66.291667,84 V 0 Z M 75.4375,0 v 78.22912 c 0.744544,-0.4 1.503849,-0.784 2.270833,-1.166613 V 0 Z m 6.854167,0 v 74.958293 c 0.751712,-0.32 1.499426,-0.634666 2.270833,-0.9376 V 0 Z m 6.854167,0 v 72.41664 c 2.924935,-0.965333 5.956599,-1.823573 9.145833,-2.520853 V 0 Z M 100.5625,0 v 69.39584 c 0.73616,-0.146133 1.54676,-0.274133 2.29167,-0.417067 V 0 Z M 112,0 v 67.37504 c 0.77408,-0.1312 1.51174,-0.288 2.29167,-0.417067 V 0 Z m 4.5625,0 v 66.562453 c 1.52425,-0.245333 3.04229,-0.490666 4.58333,-0.7296 V 0 Z m 9.14583,0 V 65.166613 C 126.47281,65.05248 127.23319,64.925547 128,64.81248 V 0 Z m 9.14584,0 v 63.81248 c 3.12392,-0.446933 6.02965,-0.9344 9.14583,-1.374933 V 0 Z m 11.4375,0 v 62.083307 c 0.77621,-0.109867 1.49698,-0.222934 2.27083,-0.3328 V 0 Z m 4.5625,0 v 61.39584 c 0.77792,-0.112 1.51718,-0.221867 2.29166,-0.3328 V 0 Z m 11.4375,0 v 59.666667 c 0.74869,-0.1152 1.52808,-0.2176 2.27083,-0.3328 V 0 Z m 6.85416,0 v 58.645867 c 1.46566,-0.24 3.12847,-0.440534 4.5625,-0.688 V 0 Z M 176,0 v 57.541653 c 0.80416,-0.142933 1.49948,-0.311466 2.29167,-0.458666 V 0 Z m 6.85417,0 v 56.166613 c 0.76597,-0.1536 1.54007,-0.301866 2.29166,-0.458666 V 0 Z m 6.85416,0 v 54.79168 c 3.32798,-0.762667 6.20326,-1.65248 9.14584,-2.520853 V 0 Z m 11.4375,0 v 51.60416 c 0.73003,-0.231467 1.59182,-0.426667 2.29167,-0.666667 V 0 Z m 4.5625,0 v 50.20832 c 2.56158,-0.957867 4.80386,-2.000853 6.85417,-3.104107 V 0 Z m 9.14584,0 v 45.79168 c 3.12444,-1.9872 5.4869,-4.182187 6.75,-6.708373 0,0 -2.02334,11.113173 -6.75,27.312533 V 256 H 224 V 0 Z m 11.4375,0 v 256 h 4.5625 V 0 Z m 11.41666,0 v 256 h 6.85417 V 0 Z m 9.14584,0 v 256 h 2.29166 V 0 Z m 4.58333,0 V 256 H 256 V 0 Z m -38.875,73.916693 c -1.91966,6.0688 -4.20851,12.613014 -6.85417,19.479147 V 256 h 6.85417 z m -38.85417,12 c -0.66496,0.01056 -1.98002,0.096 -4.5625,0.2912 v 1.145814 c 1.53919,-0.389334 2.97759,-0.8256 4.5625,-1.187414 z m -9.14583,0.791467 c -0.78667,0.08533 -1.40314,0.1408 -2.27083,0.2496 v 2.20832 c 0.73376,-0.213333 1.52612,-0.3968 2.27083,-0.603733 z m -11.41667,1.83328 c -0.74869,0.139733 -1.51459,0.301867 -2.29166,0.458667 V 92.9584 c 0.75221,-0.276267 1.52656,-0.544 2.29166,-0.8128 z m -4.58333,0.896 c -0.7967,0.1728 -1.44966,0.266667 -2.27083,0.458667 v 4.666666 c 0.71915,-0.286933 1.53938,-0.510933 2.27083,-0.791466 z M 144,90.354133 c -2.93804,0.733867 -5.9785,1.587947 -9.14583,2.58336 v 6.79168 C 137.77574,98.272427 140.84351,96.90464 144,95.58336 Z m -16,4.9792 c -0.76885,0.2816 -1.51545,0.5344 -2.29167,0.833067 v 8.62507 c 0.744,-0.44267 1.53105,-0.85867 2.29167,-1.29174 z m -6.85417,2.729174 c -1.52081,0.644266 -3.04695,1.305706 -4.58333,2.020803 v 10.68757 c 1.50552,-1.07136 3.0001,-2.15893 4.58333,-3.18752 z m 82.29167,1.0208 c -0.76512,1.875623 -1.46999,3.702083 -2.29167,5.604163 V 256 h 2.29167 z m -89.14583,2.020903 c -0.76405,0.37227 -1.52587,0.81707 -2.29167,1.20832 v 11.72918 c 0.74421,-0.5792 1.5275,-1.14027 2.29167,-1.70838 z m -11.4375,6.29163 c -0.76864,0.47147 -1.5253,1.0496 -2.29167,1.54165 v 15.22912 c 0.77026,-0.76053 1.49592,-1.54432 2.29167,-2.29162 z m 96,2.25003 c -2.74967,6.05056 -5.79359,12.11744 -9.14584,18.16661 V 256 h 9.14584 z m -100.562503,0.8128 c -3.0941,2.08138 -6.136685,4.34016 -9.145833,6.79168 v 19.56245 c 2.816387,-3.57152 5.898416,-7.01067 9.145833,-10.37504 z M 84.5625,121.08363 c -0.761845,0.68586 -1.518859,1.34912 -2.270833,2.0625 v 23.06251 c 0.716363,-1.0656 1.525166,-2.09269 2.270833,-3.14581 z m -6.854167,6.85418 c -0.753718,0.79894 -1.530848,1.54571 -2.270833,2.37494 v 27.20842 c 0.766346,-1.34688 1.467955,-2.70794 2.270833,-4.0417 z m 107.437497,7.81248 c -0.72682,1.19254 -1.53893,2.34027 -2.29166,3.52086 V 256 h 2.29166 z m -118.854163,6.1872 c -1.608997,2.33131 -3.090531,4.86624 -4.583334,7.39584 v 36.43755 c 1.491174,-3.50389 2.9628,-7.00075 4.583334,-10.50005 z m 112.000003,4.35414 c -0.7497,1.0705 -1.51868,2.11242 -2.29167,3.16672 V 256 h 2.29167 z m -4.58334,6.0417 c -1.48743,1.9407 -2.99128,3.86048 -4.5625,5.72918 V 256 h 4.5625 z M 59.4375,153.2912 c -0.746574,1.37867 -1.582001,2.60683 -2.291666,4.04213 v 39.20832 c 0.755594,-1.87008 1.514642,-3.7025 2.291666,-5.58336 z m -20.583334,1.75008 V 256 H 43.4375 v -92.89579 c -1.609655,-2.39957 -3.129405,-4.99829 -4.583334,-8.0625 z m 125.708334,8.39584 c -0.74731,0.80747 -1.50577,1.60683 -2.27083,2.39573 V 256 h 2.27083 z m -112,4.77077 c -0.568256,1.45803 -1.261028,2.73974 -1.791667,4.25003 0,0 -0.409813,-0.4704 -0.479168,-0.54187 V 256 h 2.270833 v -44.85419 l -1.125,-0.39573 c 0.36736,-0.91307 0.757066,-1.87221 1.125,-2.79168 z m 100.58333,6.20832 c -0.75029,0.63574 -1.5264,1.23819 -2.29166,1.85419 V 256 h 2.29166 z m -4.58333,3.70838 c -0.74688,0.5696 -1.51002,1.11594 -2.27083,1.66666 V 256 h 2.27083 z M 144,181.37504 c -2.94965,2.02112 -5.98917,3.91979 -9.14583,5.62496 v 69 H 144 Z m -16,8.93749 c -0.77205,0.34027 -1.50789,0.74134 -2.29167,1.0624 V 256 H 128 Z M 121.14583,193 c -1.51608,0.52907 -3.02498,1.06859 -4.58333,1.52085 V 256 h 4.58333 z m -6.85416,2.08331 c -0.76032,0.19946 -1.52142,0.40213 -2.29167,0.58346 V 256 h 2.29167 z m -36.583337,1.0624 -2.270833,5.50005 V 256 h 2.270833 z m 4.583334,0.52053 V 256 H 84.5625 v -58.64587 c -0.733813,-0.17386 -1.512865,-0.47253 -2.270833,-0.68693 z m 20.562503,0.66709 c -0.77058,0.096 -1.51184,0.25174 -2.29167,0.3328 V 256 h 2.29167 z m -4.562503,0.50027 c -2.537837,0.20267 -5.094018,0.37547 -7.729167,0.37547 -0.40736,0 -0.973642,-0.1536 -1.416666,-0.18774 V 256 h 9.145833 z M 57.145834,212.75029 V 256 H 59.4375 v -42.45835 z m 4.562499,1.58336 V 256 h 4.583334 v -40.06251 z"
     id="barcode_bar1"
     inkscape:connector-curvature="0" />
</svg>
